<svg width="49" height="34" viewBox="0 0 49 34" fill="none" xmlns="http://www.w3.org/2000/svg">
<rect x="31.704" y="2.19467" width="9.99677" height="29.4893" rx="4.99839" fill="#828186"/>
<rect x="16.566" y="1.71518" width="9.99677" height="29.9688" rx="4.99839" fill="#828186"/>
<rect width="9.58868" height="35.1145" rx="4.79434" transform="matrix(0.902434 0.430829 -0.560933 0.827861 19.6969 0.0369263)" fill="#F6F5FA"/>
<path d="M31.7631 4.12771C33.2995 1.87192 36.5425 1.00718 38.9927 2.19995C41.4346 3.38861 42.1619 6.16986 40.6171 8.41123L26.2065 29.3191C24.7061 31.4961 21.5845 32.3488 19.1836 31.2375C16.7232 30.0987 15.9568 27.3353 17.4808 25.0977L31.7631 4.12771Z" fill="#F6F5FA"/>
<path d="M37.633 17.7574C39.1354 15.5787 42.2701 14.7403 44.6554 15.8791C47.0548 17.0246 47.7909 19.7376 46.2995 21.9388L41.3625 29.2251C39.8605 31.4418 36.6847 32.3046 34.2671 31.1526C31.8328 29.9927 31.0974 27.2344 32.63 25.0119L37.633 17.7574Z" fill="#F6F5FA"/>
</svg>
